<svg width="288" height="67" viewBox="0 0 288 67" fill="none" xmlns="http://www.w3.org/2000/svg">
<g clip-path="url(#clip0_12_1280)">
<path d="M41.9302 48.1842L42.642 46.6436L43.7422 48.634L42.5774 49.2329L41.9302 48.1842Z" fill="white"/>
<path d="M43.0731 19.1444L39.5559 19.7647L41.1529 22.654L39.6843 22.8254L35.3243 15.5494L36.598 15.0565L38.8428 18.6306L40.462 18.2883L37.0301 13.2166L38.1734 12.5317L43.0731 19.1444Z" fill="white"/>
<path d="M23.4747 50.8804H22.0935L21.4026 47.0503H22.6977L23.4747 50.8804Z" fill="white"/>
<path d="M24.079 54.3899L20.539 58.8412L19.5248 58.5207L22.9566 53.877V53.791L23.993 54.3899H24.079Z" fill="white"/>
<path d="M63.3844 16.8971L62.8669 17.6466L62.3487 14.8428L63.3844 16.8971Z" fill="white"/>
<path d="M58.9213 14.1592L59.9622 18.7345L55.0521 28.8343L50.4731 29.385L50.6536 30.8596L56.0455 30.2113L61.539 18.9123L60.5939 14.7557L63.2018 12.7564L62.9815 14.7272L61.612 14.9768L62.1295 17.78L62.6301 17.886L62.4163 19.808L56.6549 31.2125L49.4301 32.1339L49.0984 30.371L47.6246 30.6451L47.9414 32.3245L47.6618 32.3608L47.8527 33.8333L48.2165 33.7869L48.8911 37.3662L47.0484 37.723L43.6557 38.6284L44.0455 40.063L47.3899 39.1706L50.6373 38.543L49.7059 33.5976L50.9078 33.4437L51.426 35.6253L52.0909 39.2558L42.2099 41.2714L42.5117 42.7272L53.8267 40.419L52.8933 35.3179L52.4024 33.2532L57.6372 32.585L63.8777 20.2351L65.0777 9.43921L58.9213 14.1592Z" fill="white"/>
<path d="M50.6532 30.8602H50.6538V30.8596L50.6532 30.8602Z" fill="white"/>
<path d="M26.3241 26.4843H27.7914L31.3099 19.4012L30.0362 19.3152L26.3241 26.4843Z" fill="white"/>
<path d="M32.627 19.5508L29.3242 26.5272L30.6409 26.5699L33.9 19.6153L32.627 19.5508Z" fill="white"/>
<path d="M32.0225 35.3014L32.7127 31.6204L31.3315 31.2993L30.9 35.0443L32.0225 35.3014Z" fill="white"/>
<path d="M28.4822 10.3915L27.425 10.7556L17.4098 10.3058L19.5679 13.58L25.1156 12.8951L25.5464 13.3235L24.5759 14.8641L25.2231 15.3566H31.742L32.3677 17.411H33.4901L32.7132 14.6717L36.4253 12.2748L37.5262 6.38973L38.1735 6.62479L38.9941 12.4459L40.829 15.4632L41.9508 15.0355L40.3323 12.5313L39.2744 5.79056L34.6341 4.07879L34.4398 3.47962L34.6771 3.20124L38.9941 4.76307L37.2889 0.568604L35.1301 1.74604L32.7132 0.568604L31.2453 2.43093L28.4822 1.66061L28.0507 4.65644L30.4683 5.44796V6.3037L31.742 6.71082L31.5041 6.98859L30.0362 7.22456L29.9501 8.52982L26.0653 8.91513L25.8058 7.99487L29.9501 6.38973L29.4749 5.53338L24.3379 7.39571L25.1156 10.1353L29.8426 9.72815L29.8849 12.146L29.5831 12.2102L28.4822 10.3915ZM20.2804 12.296L19.7622 11.5472L23.9716 11.8898L20.2804 12.296ZM37.1592 1.85327L37.4617 3.0513L35.9501 2.53755L37.1592 1.85327ZM30.6625 4.72036L29.1731 4.1427L29.4749 2.75141L30.7701 2.94406L30.6625 4.72036ZM27.3813 12.7025L26.734 11.675L27.7053 11.3972L28.2665 12.4035L27.3813 12.7025ZM33.1662 1.55338L33.9647 2.04501L33.2529 2.83744L32.5619 2.53755L33.1662 1.55338ZM31.2668 4.42047L31.375 3.24395L33.0586 4.03607L32.7562 5.2129L31.2668 4.42047ZM31.1592 8.16602L33.7489 8.0803L34.2026 5.53338L34.4398 5.61941L34.7638 5.83327L34.6341 6.79624H35.5623L35.7565 5.83327L36.145 5.9399L35.7357 8.67976L34.3532 9.81388L31.1156 9.96322L31.1592 8.16602ZM31.2453 12.9597V11.2694L34.0944 11.4405L35.1301 10.8196V11.675L31.1592 14.0938L28.3095 13.73L31.2453 12.9597Z" fill="white"/>
<path d="M11.1286 40.459L11.9707 41.0578L18.1871 35.1728L18.7483 36.0719L22.8704 33.9315L23.2811 34.5518L24.4459 33.9109L23.9929 33.1399L23.9284 30.9568L22.9135 31.1068L22.7844 33.2684L22.0074 33.0757L22.3092 31.1289L21.2298 31.0217L20.6256 33.6316L19.8701 34.1453L19.0716 32.4769L13.9777 37.1845L7.67458 40.2663L6.22884 40.5017L6.89761 39.1749L9.42341 38.1268L18.5534 27.7044L19.2444 25.6495L20.9495 25.4789L21.3165 24.1949L18.9856 24.3015L19.6114 22.8896L23.1077 22.5682L23.8417 21.2845L20.2586 21.4556L20.9059 20.2361L24.8996 20.3215L21.8347 26.3353L24.9426 26.4204L28.8059 20.2782L27.619 20.2361L24.4459 25.3078L23.8417 25.2863L27.1014 19.0586L21.5323 18.9941L23.8847 18.3737L24.1656 17.2396L27.3817 17.1324L27.5114 18.5449L28.8926 18.6303L28.482 15.7844L22.9565 16.2333L22.6117 17.4108L18.8774 18.4598L19.4171 19.7217L7.3076 19.3152L3.35758 17.4962L0.142151 19.1447L0.616674 20.5353L1.97637 19.7438L2.75334 21.0918L0.595167 23.5951L4.22124 24.1088L3.1855 25.4789L1.43666 26.3132L2.40788 27.3406L4.0485 26.6557L5.79734 27.7044L7.5025 26.5703L14.6256 26.3353L16.7622 27.7472L11.1286 33.7609L4.91217 33.0757L2.75334 35.5793L1.37213 35.8147L1.52336 36.6707L3.68153 36.4351L3.96247 35.9004L5.30065 34.338L10.0492 34.9162L9.66067 35.3016L4.22124 36.4351L3.83275 37.9981L2.40788 38.49L2.5591 39.1961L4.80396 38.7472L5.25763 37.2699L8.81853 36.6274L7.99919 37.6337L5.5164 38.7257L4.5667 40.7801L3.66002 41.1221L3.96247 41.9996L4.0485 41.9136L8.19277 41.4004L11.3228 39.8598L11.1286 40.459ZM2.99125 19.2295L3.66002 18.8442L4.41548 19.38L3.617 20.257L2.99125 19.2295ZM5.66763 26.228L4.65339 25.6495L5.68914 24.2803L6.87675 25.4789L5.66763 26.228ZM14.8407 24.9652L8.73248 25.2005L6.81157 23.1462L7.84731 21.8833L6.4661 21.2417L5.25763 22.6536L3.63851 22.461L5.14943 20.6847L10.6971 21.0064L18.7483 21.3696L16.9995 25.2005L17.7765 26.3353L17.5177 26.5703L14.8407 24.9652Z" fill="white"/>
<path d="M38.7995 35.0019L37.1165 34.8302L34.5255 29.3734L36.7925 19.5508L35.5625 19.4651L33.1665 29.8445L36.1446 36.2648L40.8292 36.4998L37.1373 47.927L34.9146 47.4354L33.2955 45.6161L30.8571 38.5969L26.1509 32.5831L26.0003 30.0156L27.4246 28.7958L27.1873 27.3403L24.5755 29.5661L24.8564 33.5255L25.8061 34.8941L22.0073 38.6402L15.2082 45.7442L15.7909 50.1958L18.8773 53.4697L16.8266 57.9853L14.7545 54.9256L8.88357 55.5247L9.14299 56.8933L10.4375 56.8088L11.0424 57.4292L10.2433 59.0337L8.97026 58.7562L8.77536 59.8046L10.8912 60.896L10.3515 61.859L9.22903 61.773L8.88357 62.8004L14.323 64.1696L21.1436 62.1801L22.3743 62.9504L23.734 62.4366L23.8415 59.9331L22.8703 59.4408L25.3524 56.017L28.2015 56.2941L30.3604 48.8267L25.6334 49.1044L25.0937 46.815L30.7273 42.4064L31.9795 46.2585L34.2674 48.74L36.9437 49.3189L41.5847 35.0658L38.7995 35.0019ZM14.1503 56.3162L15.4454 57.9641L12.683 57.5791L12.0136 56.5522L14.1503 56.3162ZM22.5033 61.6024L21.4024 60.896L21.5321 60.2535L22.5248 60.7249L22.5033 61.6024ZM23.3018 46.2798L24.4242 50.4739H28.3097L28.094 51.2021L25.6119 50.8595L25.2664 51.9291L27.7055 52.3568L27.5543 52.8706L25.1152 52.4214L24.8134 53.4916L27.1873 54.0268L26.8419 54.8395L24.5325 54.9038L21.4024 59.2048L20.5394 59.2903L20.0212 60.896L13.9775 62.8004L11.8194 62.1586L12.2294 61.3452L17.7763 61.431V60.4041L11.4739 59.9758L11.9914 59.0337L17.5176 59.8046L20.3667 52.9351L17.1076 49.3404L16.6976 46.1086L26.6913 35.901L28.6552 38.4043L27.3816 39.4957L27.6188 40.9512L29.281 41.4649L23.3018 46.2798ZM30.2091 40.7797L28.871 40.4586L28.7628 39.7522L29.5404 39.0901L30.2091 40.7152V40.7797Z" fill="white"/>
<path d="M47.1415 50.8294L49.6119 50.6531L49.6875 51.4822L51.1802 51.3483L50.8171 47.3689L45.4559 47.2559L41.9622 42.7446L40.7739 43.6506H40.7733L44.705 48.7269L49.4451 48.8263L49.477 49.1728L47.0346 49.3479L47.1415 50.8294Z" fill="white"/>
<path d="M43.9212 50.9724V50.973L43.9219 50.9724H43.9212Z" fill="white"/>
<path d="M48.8726 55.8318L47.376 55.9015L47.5272 59.0687L49.0238 58.9982L48.8726 55.8318Z" fill="white"/>
<path d="M50.9201 51.3923L46.6793 51.7761L45.0315 49.9744L43.9221 50.9728L46.0718 53.3225L50.3367 52.9372L50.9135 53.5357L47.9015 53.9098L48.0879 55.3838L49.4378 55.2166L49.533 59.8455L48.7449 61.3743L48.6661 61.3285L42.2724 62.957L40.1175 61.759L46.0471 61.6057L46.0145 60.3586L45.7172 60.3656L46.6324 57.5294L45.6957 53.287L37.6718 50.9591L37.2514 52.3856L44.4221 54.4657L45.0824 57.457L44.6424 58.8198L42.2678 56.6034L37.7637 57.802L38.1529 59.2378L41.8493 58.253L44.1548 60.4056L40.4121 60.5019L40.3814 60.484L41.3194 60.2617L41.028 59.0479H41.0274L38.5883 59.6249L38.411 60.7675L39.946 61.6814L38.2735 62.0722L38.5485 63.229L39.7889 62.9394L42.1042 64.2268L48.4881 62.6014L50.8321 63.9554L52.1396 60.8275L50.7252 59.5189L50.6333 55.0685L54.0547 54.6447L50.9201 51.3923ZM50.7134 61.1347L50.25 62.2436L49.5232 61.8241L50.1477 60.6112L50.7134 61.1347Z" fill="white"/>
<path d="M60.4714 18.9371L63.1699 18.7871L63.254 20.2708L60.5555 20.4207L60.4714 18.9371Z" fill="white"/>
<path d="M32.7346 64.0632C32.7346 64.0632 44.0443 38.1685 44.3259 37.2698C44.5417 36.5207 44.0228 33.8674 44.4772 31.3426C44.5625 30.8289 44.865 30.3791 45.0592 29.8871C45.5344 28.7745 57.773 0.996582 57.773 0.996582H64.3772C64.3772 0.996582 51.0169 30.8074 50.5417 31.963C49.2257 35.0655 46.0089 36.6927 45.5774 37.6554C45.1244 38.5968 34.4398 64.0632 34.4398 64.0632H32.7346Z" fill="#00477E"/>
<path d="M55.8731 1.14648C55.8731 1.14648 43.5693 29.9301 43.1385 30.7646C42.5342 31.9627 40.0736 33.2252 38.7993 34.8725C38.4551 35.3017 38.3033 35.8793 38.0445 36.4352C37.5478 37.5272 26.1084 63.8917 26.1084 63.8917H32.6272C32.6272 63.8917 43.246 39.5601 43.7427 38.4254C44.8215 35.9433 44.0445 32.2837 44.3469 31.2351C44.6279 30.2294 57.5997 1.14648 57.5997 1.14648H55.8731Z" fill="#E30613"/>
<path d="M55.8731 1.14746C55.8731 1.14746 43.57 29.9308 43.1385 30.7656C42.5336 31.9636 40.073 33.2265 38.7999 34.8734C38.4551 35.3021 38.3033 35.8797 38.0445 36.4362C37.5478 37.5282 26.1084 63.8927 26.1084 63.8927H32.6266C32.6266 63.8927 43.246 39.5614 43.7427 38.4263C44.8215 35.9442 44.0445 32.2847 44.3469 31.2366C44.6279 30.2304 57.5997 1.14746 57.5997 1.14746H55.8731Z" stroke="#E30613" stroke-width="1.91667"/>
<path d="M26.4534 63.8702C26.4534 63.8702 38.4117 35.9215 38.778 35.0657C39.0805 34.3593 41.6487 32.9686 43.2032 30.8285C43.5272 30.4008 43.6347 29.8871 43.8512 29.3945C44.3472 28.2816 56.0884 1.14648 56.0884 1.14648H49.6784C49.6784 1.14648 38.6483 26.27 38.1516 27.4041C37.0729 29.8871 37.958 33.6317 37.5696 34.5947C37.1811 35.5795 24.7913 63.8702 24.7913 63.8702H26.4534Z" fill="white"/>
<path d="M26.4536 63.871C26.4536 63.871 38.4112 35.9228 38.7782 35.0664C39.0806 34.3601 41.6488 32.9697 43.2034 30.8299C43.5273 30.4016 43.6349 29.8884 43.8506 29.3953C44.3467 28.2833 56.0886 1.14722 56.0886 1.14722H49.6786C49.6786 1.14722 38.6485 26.2716 38.1524 27.4057C37.073 29.8884 37.9582 33.6331 37.5697 34.5954C37.1819 35.5808 24.7914 63.871 24.7914 63.871H26.4536Z" stroke="white" stroke-width="1.91667"/>
<path d="M60.7729 0.997803L45.4043 36.4365M43.6346 31.2151L28.2667 66.6532" stroke="white" stroke-width="1.91667"/>
<path d="M52.4629 1.21191L38.3686 34.2745" stroke="white" stroke-width="1.91667"/>
<path d="M228.89 53.178C228.283 53.178 227.778 53.1026 227.375 52.952C226.973 52.8014 226.619 52.6056 226.316 52.3646L227.523 50.4896C227.675 50.6101 227.842 50.7268 228.025 50.8398C228.207 50.9527 228.435 51.0094 228.708 51.0094C229.073 51.0094 229.376 50.8586 229.619 50.5574C229.862 50.2563 230.106 49.7896 230.349 49.1571L230.69 48.2986L225.883 37.7941H228.981L232.035 45.0456L234.724 37.7941H237.663L233.197 48.3889C232.984 48.9009 232.768 49.4393 232.547 50.004C232.327 50.5688 232.069 51.0884 231.773 51.5628C231.477 52.0372 231.101 52.4248 230.645 52.726C230.189 53.0272 229.604 53.178 228.89 53.178ZM248.509 48.7954C247.506 48.7954 246.621 48.6449 245.854 48.3437C245.087 48.0425 244.434 47.6696 243.895 47.2254C243.355 46.7811 242.926 46.3635 242.607 45.9719L244.613 44.142C244.871 44.4131 245.175 44.7066 245.524 45.0229C245.873 45.3391 246.291 45.6103 246.777 45.8362C247.263 46.0621 247.825 46.1752 248.463 46.1752C249.36 46.1752 250.024 45.968 250.457 45.5539C250.89 45.1397 251.106 44.6541 251.106 44.0969C251.106 43.4493 250.84 42.9446 250.309 42.5832C249.777 42.2218 248.828 41.9132 247.461 41.6572C246.534 41.4765 245.771 41.1676 245.171 40.7309C244.571 40.2941 244.123 39.7708 243.826 39.1609C243.53 38.5509 243.382 37.9148 243.382 37.2522C243.382 36.4841 243.576 35.7724 243.963 35.1173C244.35 34.4621 244.935 33.9314 245.717 33.5248C246.5 33.1182 247.484 32.9148 248.668 32.9148C249.473 32.9148 250.165 33.0015 250.742 33.1747C251.319 33.3478 251.801 33.5587 252.189 33.8071C252.576 34.0556 252.876 34.2965 253.089 34.5299C253.301 34.7633 253.453 34.9328 253.544 35.0382L251.653 36.8003C251.562 36.7099 251.384 36.5518 251.118 36.3259C250.852 36.1 250.51 35.8929 250.092 35.7046C249.675 35.5164 249.17 35.4223 248.577 35.4223C247.787 35.4223 247.206 35.6104 246.834 35.9869C246.462 36.3634 246.276 36.74 246.276 37.1165C246.276 37.6436 246.492 38.0765 246.925 38.4154C247.358 38.7542 248.197 39.0518 249.443 39.3078C250.233 39.4734 250.973 39.7406 251.665 40.1096C252.356 40.4786 252.914 40.9906 253.339 41.6457C253.765 42.3008 253.977 43.1407 253.977 44.1647C253.977 45.0382 253.742 45.8251 253.271 46.5253C252.8 47.2256 252.151 47.779 251.323 48.1856C250.495 48.5922 249.557 48.7954 248.509 48.7954ZM161.81 48.7503C160.67 48.7503 159.679 48.5057 158.836 48.0163C157.993 47.5268 157.336 46.8454 156.865 45.9719C156.394 45.0984 156.159 44.0968 156.159 42.9673C156.159 41.9282 156.39 40.9909 156.854 40.155C157.317 39.3192 157.955 38.6564 158.768 38.167C159.58 37.6776 160.518 37.4327 161.582 37.4327C162.569 37.4327 163.397 37.6059 164.065 37.9522C164.734 38.2986 165.273 38.7619 165.683 39.3417C166.093 39.9215 166.389 40.5729 166.572 41.2958C166.754 42.0187 166.845 42.7565 166.845 43.5095V43.8936H158.87C158.87 44.4057 159.018 44.8536 159.315 45.2376C159.611 45.6217 159.987 45.9229 160.443 46.1412C160.898 46.3596 161.362 46.4687 161.833 46.4687C162.531 46.4687 163.108 46.3896 163.564 46.2315C164.02 46.0734 164.384 45.8966 164.658 45.7008C164.931 45.505 165.129 45.3469 165.25 45.2264L166.709 46.8528C166.663 46.898 166.538 47.0221 166.333 47.2254C166.127 47.4287 165.831 47.6472 165.444 47.8806C165.057 48.114 164.563 48.3175 163.963 48.4907C163.363 48.6638 162.645 48.7503 161.81 48.7503ZM173.043 48.7503C172.055 48.7503 171.155 48.6111 170.343 48.3325C169.53 48.0539 168.881 47.6433 168.395 47.1012L170.012 45.3618C170.347 45.6932 170.768 45.968 171.277 46.1864C171.786 46.4047 172.367 46.5138 173.02 46.5138C173.597 46.5138 174.061 46.4348 174.41 46.2766C174.759 46.1185 174.934 45.874 174.934 45.5427C174.934 45.3318 174.87 45.1474 174.74 44.9893C174.611 44.8311 174.357 44.6727 173.977 44.5146C173.597 44.3565 173.013 44.1873 172.223 44.0066C171.752 43.8861 171.251 43.7053 170.719 43.4644C170.187 43.2234 169.735 42.8809 169.363 42.4366C168.991 41.9923 168.805 41.4313 168.805 40.7536C168.805 40.0458 169.021 39.4434 169.454 38.9464C169.887 38.4494 170.442 38.0729 171.118 37.8168C171.794 37.5608 172.488 37.4327 173.202 37.4327C174.144 37.4327 174.949 37.5308 175.618 37.7266C176.286 37.9223 176.878 38.2159 177.395 38.6074L176.005 40.4825C175.716 40.2716 175.333 40.0795 174.854 39.9063C174.376 39.7332 173.825 39.6467 173.202 39.6467C172.58 39.6467 172.139 39.7408 171.881 39.9291C171.623 40.1173 171.493 40.3468 171.493 40.6179C171.493 40.9492 171.702 41.209 172.12 41.3973C172.538 41.5855 173.187 41.785 174.068 41.9959C175.147 42.2368 176.009 42.6097 176.654 43.1142C177.3 43.6187 177.623 44.3829 177.623 45.407C177.623 46.0847 177.414 46.6757 176.996 47.1802C176.578 47.6848 176.024 48.0727 175.333 48.3437C174.642 48.6148 173.878 48.7503 173.043 48.7503ZM208.885 48.7503C207.897 48.7503 206.997 48.6111 206.184 48.3325C205.372 48.0539 204.722 47.6433 204.236 47.1012L205.854 45.3618C206.188 45.6932 206.61 45.968 207.119 46.1864C207.628 46.4047 208.209 46.5138 208.862 46.5138C209.439 46.5138 209.902 46.4348 210.252 46.2766C210.601 46.1185 210.776 45.874 210.776 45.5427C210.776 45.3318 210.711 45.1474 210.582 44.9893C210.453 44.8311 210.199 44.6727 209.819 44.5146C209.439 44.3565 208.854 44.1873 208.064 44.0066C207.594 43.8861 207.092 43.7053 206.561 43.4644C206.029 43.2234 205.577 42.8809 205.205 42.4366C204.833 41.9923 204.647 41.4313 204.647 40.7536C204.647 40.0458 204.863 39.4434 205.296 38.9464C205.729 38.4494 206.283 38.0729 206.959 37.8168C207.635 37.5608 208.33 37.4327 209.044 37.4327C209.986 37.4327 210.791 37.5308 211.459 37.7266C212.128 37.9223 212.72 38.2159 213.237 38.6074L211.847 40.4825C211.558 40.2716 211.175 40.0795 210.696 39.9063C210.218 39.7332 209.667 39.6467 209.044 39.6467C208.421 39.6467 207.981 39.7408 207.723 39.9291C207.464 40.1173 207.335 40.3468 207.335 40.6179C207.335 40.9492 207.544 41.209 207.962 41.3973C208.38 41.5855 209.029 41.785 209.91 41.9959C210.988 42.2368 211.85 42.6097 212.496 43.1142C213.142 43.6187 213.465 44.3829 213.465 45.407C213.465 46.0847 213.256 46.6757 212.838 47.1802C212.42 47.6848 211.866 48.0727 211.175 48.3437C210.483 48.6148 209.72 48.7503 208.885 48.7503ZM188.15 48.7278C187.572 48.7278 186.999 48.6071 186.429 48.3662C185.86 48.1252 185.389 47.7489 185.017 47.2369C184.644 46.7249 184.458 46.0771 184.458 45.294C184.458 44.0892 184.891 43.1556 185.757 42.4929C186.623 41.8303 187.755 41.4991 189.152 41.4991C189.411 41.4991 189.718 41.5064 190.075 41.5215C190.432 41.5365 190.892 41.5592 191.454 41.5893V41.3409C191.454 40.8139 191.241 40.3996 190.816 40.0984C190.39 39.7972 189.836 39.6467 189.152 39.6467C188.393 39.6467 187.785 39.7445 187.33 39.9403C186.874 40.136 186.471 40.3469 186.122 40.5728L184.891 38.7656C185.18 38.5547 185.522 38.3476 185.917 38.1443C186.312 37.941 186.798 37.7715 187.375 37.636C187.952 37.5005 188.666 37.4327 189.517 37.4327C190.884 37.4327 191.978 37.7906 192.798 38.506C193.618 39.2213 194.029 40.1436 194.029 41.2731V48.3889H191.522L191.454 47.395C191.165 47.7414 190.721 48.0499 190.121 48.321C189.521 48.5921 188.864 48.7278 188.15 48.7278ZM270.725 48.7278C270.147 48.7278 269.574 48.6071 269.005 48.3662C268.435 48.1252 267.964 47.7489 267.592 47.2369C267.22 46.7249 267.033 46.0771 267.033 45.294C267.033 44.0892 267.466 43.1556 268.332 42.4929C269.198 41.8303 270.33 41.4991 271.728 41.4991C271.986 41.4991 272.293 41.5064 272.65 41.5215C273.007 41.5365 273.467 41.5592 274.029 41.5893V41.3409C274.029 40.8139 273.816 40.3996 273.391 40.0984C272.965 39.7972 272.411 39.6467 271.728 39.6467C270.968 39.6467 270.36 39.7445 269.905 39.9403C269.449 40.136 269.046 40.3469 268.697 40.5728L267.466 38.7656C267.755 38.5547 268.097 38.3476 268.492 38.1443C268.887 37.941 269.373 37.7715 269.95 37.636C270.527 37.5005 271.241 37.4327 272.092 37.4327C273.459 37.4327 274.553 37.7906 275.373 38.506C276.193 39.2213 276.603 40.1436 276.603 41.2731V48.3889H274.097L274.029 47.395C273.74 47.7414 273.296 48.0499 272.696 48.321C272.096 48.5921 271.439 48.7278 270.725 48.7278ZM148.229 48.3889L142.579 33.3216H145.768L149.802 44.8196L153.835 33.3216H156.842L151.191 48.3889H148.229ZM179.81 48.3889V33.3216H182.499V48.3889H179.81ZM196.626 48.3889V37.7941H199.201L199.269 39.1269C199.436 38.9161 199.66 38.694 199.941 38.4605C200.222 38.2271 200.572 38.0239 200.989 37.8508C201.407 37.6776 201.905 37.5909 202.482 37.5909C202.74 37.5909 202.972 37.6059 203.177 37.636C203.382 37.6661 203.591 37.7188 203.803 37.7941L203.257 40.3016C202.892 40.1661 202.482 40.0984 202.026 40.0984C201.282 40.0984 200.644 40.3319 200.112 40.7987C199.581 41.2656 199.315 41.8907 199.315 42.6738V48.3889H196.626ZM215.652 48.3889V33.3216H218.341V41.5442L222.191 37.7941H225.359L221.348 41.7023L225.814 48.3889H222.601L219.503 43.5095L218.341 44.6391V48.3889H215.652ZM259.264 48.3889L254.729 37.7941H257.828L260.699 45.3846L263.57 37.7941H266.509L261.998 48.3889H259.264ZM278.928 48.3889V46.3557L284.373 40.0305H279.087V37.7941H287.723V39.8724L282.095 46.2203H287.723V48.3889H278.928ZM188.97 46.6268C189.395 46.6268 189.794 46.5364 190.166 46.3557C190.538 46.175 190.846 45.9342 191.089 45.633C191.332 45.3318 191.454 45.0005 191.454 44.6391V43.5998C191.104 43.5697 190.725 43.547 190.314 43.5319C189.904 43.5169 189.593 43.5095 189.38 43.5095C188.514 43.5095 187.907 43.679 187.557 44.0178C187.208 44.3567 187.033 44.7443 187.033 45.181C187.033 45.6328 187.197 45.9867 187.523 46.2427C187.85 46.4987 188.332 46.6268 188.97 46.6268ZM271.545 46.6268C271.97 46.6268 272.369 46.5364 272.741 46.3557C273.113 46.175 273.421 45.9342 273.664 45.633C273.907 45.3318 274.029 45.0005 274.029 44.6391V43.5998C273.679 43.5697 273.3 43.547 272.889 43.5319C272.479 43.5169 272.168 43.5095 271.955 43.5095C271.089 43.5095 270.482 43.679 270.132 44.0178C269.783 44.3567 269.608 44.7443 269.608 45.181C269.608 45.6328 269.771 45.9867 270.098 46.2427C270.425 46.4987 270.907 46.6268 271.545 46.6268ZM158.847 41.9734H164.088C164.088 41.612 163.993 41.2541 163.803 40.9002C163.613 40.5463 163.336 40.2528 162.972 40.0193C162.607 39.7859 162.144 39.6692 161.582 39.6692C160.989 39.6692 160.492 39.7859 160.089 40.0193C159.687 40.2528 159.379 40.5463 159.166 40.9002C158.954 41.2541 158.847 41.612 158.847 41.9734ZM198.882 36.1905L196.512 32.9826H198.882L200.158 34.6995L201.411 32.9826H203.781L201.411 36.1905H198.882ZM230.804 36.1905L231.898 32.9826H234.769L232.969 36.1905H230.804ZM126.788 52.3647L127.996 50.4897C128.148 50.6102 128.315 50.7269 128.497 50.8399C128.679 50.9528 128.907 51.0093 129.181 51.0093C129.545 51.0093 129.849 50.8587 130.092 50.5575C130.335 50.2563 130.578 49.7894 130.821 49.1569L131.163 48.2985L126.355 37.7943H129.454L132.507 45.0456L135.196 37.7943H138.135L133.669 48.3889C133.457 48.9009 133.24 49.4393 133.02 50.004C132.8 50.5688 132.542 51.0884 132.245 51.5627C131.949 52.0371 131.573 52.4249 131.117 52.7261C130.662 53.0273 130.077 53.1779 129.363 53.1779C128.755 53.1779 128.25 53.1026 127.848 52.952C127.445 52.8014 127.092 52.6056 126.788 52.3647ZM131.277 36.1904L132.371 32.9826H135.242L133.442 36.1904H131.277ZM116.125 48.3889V33.3215H118.813V41.5442L122.664 37.7943H125.831L121.821 41.7023L126.287 48.3889H123.074L119.975 43.5095L118.813 44.639V48.3889H116.125ZM104.709 47.1013L106.327 45.3618C106.661 45.6932 107.082 45.968 107.591 46.1864C108.1 46.4047 108.681 46.5139 109.334 46.5139C109.912 46.5139 110.375 46.4349 110.724 46.2767C111.074 46.1186 111.248 45.8739 111.248 45.5426C111.248 45.3317 111.184 45.1472 111.055 44.9891C110.926 44.831 110.671 44.6729 110.291 44.5147C109.912 44.3566 109.327 44.1872 108.537 44.0065C108.066 43.886 107.565 43.7053 107.033 43.4643C106.501 43.2233 106.05 42.8807 105.677 42.4365C105.305 41.9922 105.119 41.4312 105.119 40.7535C105.119 40.0457 105.336 39.4433 105.768 38.9463C106.201 38.4494 106.756 38.0729 107.432 37.8168C108.108 37.5608 108.803 37.4328 109.517 37.4328C110.459 37.4328 111.264 37.5307 111.932 37.7265C112.6 37.9223 113.193 38.2159 113.709 38.6075L112.319 40.4824C112.031 40.2716 111.647 40.0796 111.169 39.9064C110.69 39.7332 110.14 39.6466 109.517 39.6466C108.894 39.6466 108.453 39.7407 108.195 39.929C107.937 40.1172 107.808 40.3469 107.808 40.618C107.808 40.9493 108.017 41.2091 108.434 41.3973C108.852 41.5856 109.502 41.7851 110.383 41.996C111.461 42.2369 112.323 42.6096 112.969 43.1142C113.614 43.6187 113.937 44.383 113.937 45.407C113.937 46.0847 113.728 46.6758 113.311 47.1803C112.893 47.6848 112.338 48.0726 111.647 48.3437C110.956 48.6148 110.193 48.7503 109.357 48.7503C108.37 48.7503 107.47 48.611 106.657 48.3324C105.844 48.0538 105.195 47.6434 104.709 47.1013ZM101.565 45.2263L103.023 46.8528C102.977 46.8979 102.852 47.0222 102.647 47.2255C102.442 47.4288 102.146 47.6472 101.758 47.8806C101.371 48.114 100.877 48.3173 100.277 48.4905C99.6771 48.6637 98.9594 48.7503 98.1239 48.7503C96.9846 48.7503 95.9935 48.5056 95.1504 48.0161C94.3073 47.5267 93.6503 46.8452 93.1794 45.9718C92.7085 45.0983 92.4731 44.0968 92.4731 42.9673C92.4731 41.9282 92.7047 40.9907 93.168 40.1549C93.6313 39.3191 94.2693 38.6564 95.082 38.167C95.8947 37.6775 96.8327 37.4328 97.896 37.4328C98.8834 37.4328 99.7113 37.606 100.38 37.9524C101.048 38.2988 101.587 38.7619 101.997 39.3417C102.408 39.9215 102.704 40.5728 102.886 41.2957C103.068 42.0185 103.16 42.7565 103.16 43.5095V43.8935H95.1846C95.1846 44.4055 95.3327 44.8536 95.6289 45.2376C95.9251 45.6216 96.3011 45.9228 96.7568 46.1412C97.2125 46.3596 97.6758 46.4687 98.1467 46.4687C98.8455 46.4687 99.4227 46.3897 99.8784 46.2316C100.334 46.0734 100.699 45.8965 100.972 45.7007C101.246 45.5049 101.443 45.3468 101.565 45.2263ZM95.1618 41.9734H100.402C100.402 41.6119 100.308 41.2543 100.118 40.9004C99.9278 40.5464 99.6505 40.2528 99.286 40.0193C98.9214 39.7859 98.4581 39.6692 97.896 39.6692C97.3036 39.6692 96.8061 39.7859 96.4036 40.0193C96.0011 40.2528 95.6934 40.5464 95.4808 40.9004C95.2681 41.2543 95.1618 41.6119 95.1618 41.9734ZM89.1236 43.9161L91.1287 45.6329C90.8249 46.0847 90.3692 46.5516 89.7616 47.0335C89.154 47.5154 88.4324 47.922 87.597 48.2533C86.7615 48.5847 85.8577 48.7503 84.8855 48.7503C83.3816 48.7503 82.0487 48.4115 80.8866 47.7338C79.7245 47.0561 78.8131 46.1261 78.1523 44.9439C77.4916 43.7617 77.1612 42.4252 77.1612 40.9342C77.1612 39.8349 77.351 38.8033 77.7308 37.8394C78.1106 36.8756 78.646 36.0285 79.3372 35.2981C80.0284 34.5677 80.8524 33.9954 81.8094 33.5813C82.7664 33.1671 83.8222 32.96 84.9766 32.96C86.4805 32.96 87.7299 33.2537 88.7249 33.841C89.7198 34.4284 90.5211 35.1437 91.1287 35.9871L89.1008 37.7717C88.6147 37.0789 88.0489 36.5217 87.4033 36.1C86.7577 35.6783 85.9488 35.4675 84.9766 35.4675C83.9892 35.4675 83.1348 35.716 82.4132 36.213C81.6917 36.7099 81.1372 37.3688 80.7499 38.1896C80.3625 39.0103 80.1689 39.9026 80.1689 40.8665C80.1689 41.8303 80.3625 42.7038 80.7499 43.4869C81.1372 44.27 81.6803 44.895 82.3791 45.3618C83.0778 45.8287 83.8981 46.0621 84.8399 46.0621C85.721 46.0621 86.4311 45.9341 86.9704 45.6781C87.5096 45.4221 87.9425 45.1247 88.2691 44.7858C88.5957 44.447 88.8806 44.1571 89.1236 43.9161ZM83.45 32.192L80.9436 28.668H83.3133L84.726 30.5203L86.1159 28.668H88.4856L85.9792 32.192H83.45Z" fill="white"/>
</g>
<defs>
<clipPath id="clip0_12_1280">
<rect width="288" height="67" fill="white"/>
</clipPath>
</defs>
</svg>
