<svg width="16" height="16" viewBox="0 0 16 16" fill="none" xmlns="http://www.w3.org/2000/svg">
<g clip-path="url(#clip0_442_2335)">
<path d="M8.00179 3.89876C5.73162 3.89876 3.9005 5.72988 3.9005 8.00005C3.9005 10.2702 5.73162 12.1013 8.00179 12.1013C10.2719 12.1013 12.1031 10.2702 12.1031 8.00005C12.1031 5.72988 10.2719 3.89876 8.00179 3.89876ZM8.00179 10.6664C6.53475 10.6664 5.33542 9.47065 5.33542 8.00005C5.33542 6.52944 6.53118 5.33368 8.00179 5.33368C9.47239 5.33368 10.6682 6.52944 10.6682 8.00005C10.6682 9.47065 9.46882 10.6664 8.00179 10.6664ZM13.2274 3.731C13.2274 4.26285 12.7991 4.68761 12.2708 4.68761C11.739 4.68761 11.3142 4.25928 11.3142 3.731C11.3142 3.20272 11.7426 2.77439 12.2708 2.77439C12.7991 2.77439 13.2274 3.20272 13.2274 3.731ZM15.9438 4.70189C15.8831 3.42046 15.5904 2.28538 14.6516 1.35019C13.7165 0.414993 12.5814 0.1223 11.2999 0.0580497C9.97925 -0.0169085 6.02075 -0.0169085 4.70006 0.0580497C3.4222 0.11873 2.28712 0.411424 1.34835 1.34662C0.409593 2.28181 0.120468 3.41689 0.0562186 4.69832C-0.0187395 6.01901 -0.0187395 9.97751 0.0562186 11.2982C0.116899 12.5796 0.409593 13.7147 1.34835 14.6499C2.28712 15.5851 3.41863 15.8778 4.70006 15.942C6.02075 16.017 9.97925 16.017 11.2999 15.942C12.5814 15.8814 13.7165 15.5887 14.6516 14.6499C15.5868 13.7147 15.8795 12.5796 15.9438 11.2982C16.0187 9.97751 16.0187 6.02258 15.9438 4.70189ZM14.2376 12.7153C13.9592 13.4149 13.4202 13.9539 12.717 14.2359C11.664 14.6535 9.16542 14.5571 8.00179 14.5571C6.83815 14.5571 4.33597 14.6499 3.28656 14.2359C2.58695 13.9574 2.04796 13.4185 1.76598 12.7153C1.34835 11.6623 1.44473 9.16368 1.44473 8.00005C1.44473 6.83641 1.35192 4.33423 1.76598 3.28482C2.04439 2.58521 2.58338 2.04623 3.28656 1.76424C4.33954 1.34662 6.83815 1.44299 8.00179 1.44299C9.16542 1.44299 11.6676 1.35019 12.717 1.76424C13.4166 2.04266 13.9556 2.58164 14.2376 3.28482C14.6552 4.3378 14.5588 6.83641 14.5588 8.00005C14.5588 9.16368 14.6552 11.6659 14.2376 12.7153Z" fill="white"/>
</g>
<defs>
<clipPath id="clip0_442_2335">
<rect width="16" height="16" fill="white"/>
</clipPath>
</defs>
</svg>
