<svg width="65" height="68" viewBox="0 0 65 68" fill="none" xmlns="http://www.w3.org/2000/svg">
<path d="M41.7881 48.6156L42.4999 47.075L43.6002 49.0654L42.4353 49.6643L41.7881 48.6156Z" fill="black"/>
<path d="M42.931 19.5757L39.4137 20.196L41.0107 23.0852L39.5422 23.2567L35.1821 15.9807L36.4558 15.4878L38.7006 19.0619L40.3198 18.7196L36.8879 13.6479L38.0312 12.963L42.931 19.5757Z" fill="black"/>
<path d="M23.3324 51.3117H21.9512L21.2603 47.4817H22.5554L23.3324 51.3117Z" fill="black"/>
<path d="M23.9371 54.8214L20.397 59.2727L19.3828 58.9523L22.8146 54.3086V54.2225L23.851 54.8214H23.9371Z" fill="black"/>
<path d="M63.2423 17.3287L62.7247 18.0781L62.2065 15.2743L63.2423 17.3287Z" fill="black"/>
<path d="M58.7792 14.5906L59.8202 19.1659L54.91 29.2657L50.331 29.8164L50.5115 31.291L55.9034 30.6427L61.3969 19.3437L60.4518 15.1871L63.0597 13.1878L62.8394 15.1586L61.4699 15.4082L61.9875 18.2114L62.4881 18.3174L62.2743 20.2394L56.5128 31.6438L49.2881 32.5653L48.9563 30.8024L47.4825 31.0765L47.7993 32.7559L47.5197 32.7922L47.7107 34.2647L48.0744 34.2183L48.749 37.7976L46.9063 38.1544L43.5136 39.0598L43.9034 40.4944L47.2479 39.602L50.4952 38.9744L49.5638 34.029L50.7658 33.8751L51.284 36.0567L51.9488 39.6872L42.0679 41.7028L42.3697 43.1586L53.6846 40.8504L52.7512 35.7493L52.2604 33.6846L57.4951 33.0164L63.7357 20.6665L64.9357 9.87061L58.7792 14.5906Z" fill="black"/>
<path d="M50.5112 31.2915H50.5119V31.2909L50.5112 31.2915Z" fill="black"/>
<path d="M26.1821 26.9156H27.6494L31.1679 19.8325L29.8942 19.7465L26.1821 26.9156Z" fill="black"/>
<path d="M32.4849 19.9822L29.1821 26.9586L30.4988 27.0013L33.7579 20.0467L32.4849 19.9822Z" fill="black"/>
<path d="M31.8802 35.7328L32.5705 32.0518L31.1893 31.7307L30.7578 35.4757L31.8802 35.7328Z" fill="black"/>
<path d="M28.34 10.8229L27.2828 11.187L17.2676 10.7372L19.4257 14.0114L24.9734 13.3265L25.4042 13.7549L24.4337 15.2955L25.0809 15.788H31.5998L32.2255 17.8424H33.348L32.571 15.1031L36.2831 12.7062L37.384 6.82112L38.0313 7.05618L38.8519 12.8773L40.6868 15.8946L41.8086 15.4669L40.1901 12.9627L39.1322 6.22196L34.4919 4.51018L34.2977 3.91102L34.5349 3.63264L38.8519 5.19447L37.1468 1L34.9879 2.17743L32.571 1L31.1031 2.86232L28.34 2.09201L27.9085 5.08784L30.3261 5.87936V6.73509L31.5998 7.14221L31.3619 7.41999L29.894 7.65596L29.8079 8.96122L25.9231 9.34653L25.6637 8.42627L29.8079 6.82112L29.3328 5.96478L24.1958 7.8271L24.9734 10.5667L29.7004 10.1596L29.7427 12.5774L29.441 12.6416L28.34 10.8229ZM20.1382 12.7274L19.62 11.9786L23.8294 12.3212L20.1382 12.7274ZM37.0171 2.28466L37.3195 3.48269L35.8079 2.96895L37.0171 2.28466ZM30.5204 5.15176L29.031 4.5741L29.3328 3.18281L30.6279 3.37546L30.5204 5.15176ZM27.2391 13.1339L26.5919 12.1064L27.5631 11.8286L28.1243 12.8349L27.2391 13.1339ZM33.024 1.98478L33.8225 2.47641L33.1107 3.26884L32.4198 2.96895L33.024 1.98478ZM31.1246 4.85187L31.2328 3.67535L32.9165 4.46747L32.614 5.6443L31.1246 4.85187ZM31.0171 8.59742L33.6067 8.51169L34.0604 5.96478L34.2977 6.05081L34.6216 6.26467L34.4919 7.22763H35.4201L35.6143 6.26467L36.0028 6.37129L35.5935 9.11116L34.211 10.2453L30.9734 10.3946L31.0171 8.59742ZM31.1031 13.3911V11.7008L33.9522 11.8719L34.9879 11.251V12.1064L31.0171 14.5252L28.1673 14.1614L31.1031 13.3911Z" fill="black"/>
<path d="M10.9864 40.8903L11.8286 41.4891L18.045 35.6041L18.6062 36.5031L22.7283 34.3627L23.1389 34.9831L24.3037 34.3421L23.8507 33.5712L23.7862 31.3881L22.7713 31.5381L22.6423 33.6997L21.8653 33.507L22.1671 31.5602L21.0877 31.4529L20.4834 34.0629L19.728 34.5766L18.9295 32.9081L13.8355 37.6157L7.53243 40.6976L6.08669 40.933L6.75546 39.6062L9.28126 38.5581L18.4113 28.1357L19.1022 26.0807L20.8074 25.9102L21.1744 24.6261L18.8435 24.7328L19.4692 23.3209L22.9656 22.9995L23.6995 21.7157L20.1165 21.8869L20.7637 20.6673L24.7574 20.7528L21.6926 26.7665L24.8004 26.8517L28.6638 20.7094L27.4768 20.6673L24.3037 25.739L23.6995 25.7175L26.9593 19.4899L21.3901 19.4254L23.7425 18.805L24.0235 17.6709L27.2395 17.5637L27.3693 18.9762L28.7505 19.0616L28.3398 16.2157L22.8143 16.6646L22.4695 17.842L18.7353 18.891L19.275 20.153L7.16545 19.7465L3.21543 17.9275L0 19.5759L0.474524 20.9666L1.83422 20.1751L2.61119 21.5231L0.453016 24.0264L4.07909 24.5401L3.04335 25.9102L1.29451 26.7444L2.26573 27.7719L3.90635 27.087L5.65519 28.1357L7.36035 27.0016L14.4834 26.7665L16.6201 28.1784L10.9864 34.1922L4.77002 33.507L2.61119 36.0106L1.22998 36.246L1.38121 37.102L3.53938 36.8663L3.82032 36.3317L5.1585 34.7693L9.90701 35.3475L9.51852 35.7328L4.07909 36.8663L3.6906 38.4294L2.26573 38.9213L2.41694 39.6274L4.66181 39.1785L5.11548 37.7012L8.67638 37.0587L7.85703 38.065L5.37425 39.157L4.42455 41.2114L3.51787 41.5533L3.82032 42.4309L3.90635 42.3449L8.05062 41.8317L11.1807 40.2911L10.9864 40.8903ZM2.8491 19.6608L3.51787 19.2754L4.27333 19.8113L3.47485 20.6882L2.8491 19.6608ZM5.52547 26.6593L4.51124 26.0807L5.54699 24.7116L6.7346 25.9102L5.52547 26.6593ZM14.6985 25.3965L8.59033 25.6318L6.66942 23.5774L7.70516 22.3146L6.32395 21.673L5.11548 23.0849L3.49636 22.8923L5.00728 21.116L10.5549 21.4377L18.6062 21.8008L16.8574 25.6318L17.6343 26.7665L17.3756 27.0016L14.6985 25.3965Z" fill="black"/>
<path d="M38.6574 35.4333L36.9744 35.2616L34.3834 29.8048L36.6505 19.9822L35.4205 19.8965L33.0244 30.2759L36.0026 36.6962L40.6872 36.9312L36.9953 48.3584L34.7726 47.8668L33.1535 46.0475L30.715 39.0283L26.0089 33.0145L25.8583 30.447L27.2825 29.2272L27.0453 27.7717L24.4334 29.9975L24.7143 33.9569L25.664 35.3255L21.8652 39.0716L15.0661 46.1756L15.6488 50.6272L18.7352 53.9011L16.6846 58.4167L14.6124 55.357L8.74151 55.9561L9.00093 57.3247L10.2954 57.2402L10.9003 57.8605L10.1012 59.4651L8.8282 59.1876L8.6333 60.236L10.7491 61.3274L10.2094 62.2904L9.08697 62.2044L8.74151 63.2318L14.1809 64.601L21.0016 62.6115L22.2322 63.3818L23.5919 62.868L23.6995 60.3644L22.7283 59.8722L25.2104 56.4484L28.0595 56.7255L30.2183 49.2581L25.4913 49.5358L24.9516 47.2464L30.5853 42.8378L31.8374 46.6899L34.1253 49.1714L36.8017 49.7503L41.4426 35.4972L38.6574 35.4333ZM14.0082 56.7476L15.3034 58.3955L12.541 58.0105L11.8715 56.9836L14.0082 56.7476ZM22.3613 62.0338L21.2604 61.3274L21.3901 60.6849L22.3828 61.1563L22.3613 62.0338ZM23.1598 46.7111L24.2822 50.9053H28.1677L27.9519 51.6335L25.4698 51.2909L25.1243 52.3605L27.5635 52.7882L27.4122 53.302L24.9731 52.8528L24.6713 53.923L27.0453 54.4582L26.6998 55.2709L24.3904 55.3351L21.2604 59.6362L20.3973 59.7217L19.8791 61.3274L13.8355 63.2318L11.6773 62.59L12.0873 61.7766L17.6343 61.8624V60.8355L11.3318 60.4072L11.8494 59.4651L17.3755 60.236L20.2246 53.3665L16.9655 49.7718L16.5555 46.54L26.5492 36.3324L28.5131 38.8357L27.2395 39.9271L27.4768 41.3826L29.1389 41.8963L23.1598 46.7111ZM30.0671 41.2111L28.7289 40.89L28.6207 40.1836L29.3983 39.5215L30.0671 41.1466V41.2111Z" fill="black"/>
<path d="M46.9996 51.261L49.47 51.0847L49.5456 51.9137L51.0383 51.7798L50.6752 47.8004L45.314 47.6875L41.8203 43.1761L40.632 44.0822H40.6313L44.5631 49.1584L49.3032 49.2578L49.3351 49.6043L46.8927 49.7794L46.9996 51.261Z" fill="black"/>
<path d="M43.7793 51.4039V51.4045L43.7799 51.4039H43.7793Z" fill="black"/>
<path d="M48.7305 56.2632L47.2339 56.3329L47.3851 59.5001L48.8817 59.4296L48.7305 56.2632Z" fill="black"/>
<path d="M50.778 51.8237L46.5373 52.2075L44.8895 50.4058L43.7801 51.4042L45.9298 53.7539L50.1947 53.3686L50.7715 53.9671L47.7595 54.3412L47.9459 55.8152L49.2958 55.648L49.391 60.2769L48.6029 61.8057L48.524 61.7599L42.1303 63.3884L39.9754 62.1904L45.905 62.0371L45.8724 60.79L45.5752 60.797L46.4904 57.9608L45.5537 53.7184L37.5298 51.3905L37.1094 52.817L44.28 54.8971L44.9403 57.8884L44.5004 59.2512L42.1258 57.0348L37.6217 58.2334L38.0108 59.6692L41.7073 58.6844L44.0128 60.837L40.27 60.9333L40.2394 60.9154L41.1774 60.6931L40.886 59.4793H40.8854L38.4463 60.0563L38.269 61.1989L39.804 62.1128L38.1314 62.5036L38.4065 63.6604L39.6469 63.3708L41.9622 64.6582L48.3461 63.0328L50.69 64.3868L51.9976 61.2589L50.5831 59.9503L50.4912 55.4999L53.9126 55.0761L50.778 51.8237ZM50.5714 61.5661L50.108 62.675L49.3812 62.2555L50.0056 61.0426L50.5714 61.5661Z" fill="black"/>
<path d="M60.3291 19.3684L63.0276 19.2185L63.1117 20.7022L60.4132 20.8521L60.3291 19.3684Z" fill="black"/>
<path d="M32.5923 64.4946C32.5923 64.4946 43.902 38.5999 44.1836 37.7012C44.3994 36.9521 43.8805 34.2988 44.3348 31.774C44.4202 31.2603 44.7227 30.8105 44.9169 30.3185C45.3921 29.2059 57.6306 1.42798 57.6306 1.42798H64.2349C64.2349 1.42798 50.8745 31.2388 50.3993 32.3944C49.0833 35.4969 45.8666 37.1241 45.4351 38.0868C44.9821 39.0282 34.2974 64.4946 34.2974 64.4946H32.5923Z" fill="#00477E"/>
<path d="M55.731 1.578C55.731 1.578 43.4273 30.3616 42.9964 31.1961C42.3922 32.3942 39.9315 33.6567 38.6572 35.304C38.3131 35.7332 38.1612 36.3109 37.9024 36.8667C37.4057 37.9587 25.9663 64.3233 25.9663 64.3233H32.4852C32.4852 64.3233 43.104 39.9916 43.6006 38.8569C44.6794 36.3748 43.9024 32.7153 44.2049 31.6666C44.4858 30.6609 57.4577 1.578 57.4577 1.578H55.731Z" fill="#E30613"/>
<path d="M55.731 1.57886C55.731 1.57886 43.4279 30.3622 42.9964 31.197C42.3915 32.395 39.9309 33.6579 38.6579 35.3048C38.3131 35.7335 38.1612 36.3111 37.9024 36.8676C37.4057 37.9596 25.9663 64.3241 25.9663 64.3241H32.4845C32.4845 64.3241 43.104 39.9927 43.6006 38.8577C44.6794 36.3756 43.9024 32.7161 44.2049 31.668C44.4858 30.6617 57.4577 1.57886 57.4577 1.57886H55.731Z" stroke="#E30613" stroke-width="1.91667"/>
<path d="M26.3111 64.3018C26.3111 64.3018 38.2694 36.353 38.6357 35.4972C38.9381 34.7908 41.5063 33.4002 43.0609 31.2601C43.3848 30.8323 43.4924 30.3186 43.7088 29.8261C44.2048 28.7132 55.946 1.578 55.946 1.578H49.5361C49.5361 1.578 38.506 26.7015 38.0093 27.8356C36.9305 30.3186 37.8157 34.0632 37.4272 35.0262C37.0387 36.011 24.6489 64.3018 24.6489 64.3018H26.3111Z" fill="white"/>
<path d="M26.3116 64.3024C26.3116 64.3024 38.2692 36.3542 38.6362 35.4978C38.9386 34.7914 41.5068 33.4011 43.0614 31.2613C43.3853 30.833 43.4929 30.3198 43.7086 29.8267C44.2047 28.7147 55.9465 1.57861 55.9465 1.57861H49.5365C49.5365 1.57861 38.5064 26.703 38.0104 27.8371C36.931 30.3198 37.8162 34.0645 37.4277 35.0268C37.0399 36.0122 24.6494 64.3024 24.6494 64.3024H26.3116Z" stroke="black" stroke-width="1.91667"/>
<path d="M60.6308 1.4292L45.2622 36.8679M43.4925 31.6465L28.1245 67.0846" stroke="white" stroke-width="1.91667"/>
<path d="M52.3209 1.64343L38.2266 34.706" stroke="black" stroke-width="1.91667"/>
</svg>
