<svg width="288" height="67" viewBox="0 0 288 67" fill="none" xmlns="http://www.w3.org/2000/svg"><g clip-path="url(#clip0_12_1280)"><path d="M41.93 48.184l.712-1.54 1.1 1.99-1.165.599-.647-1.049zM43.073 19.144l-3.517.62 1.597 2.89-1.469.171-4.36-7.276 1.274-.492 2.245 3.574 1.619-.343-3.432-5.071 1.143-.685 4.9 6.612zM23.475 50.88h-1.382l-.69-3.83h1.295l.777 3.83zM24.079 54.39l-3.54 4.451-1.014-.32 3.432-4.644v-.086l1.036.599h.086zM63.384 16.897l-.517.75-.518-2.804 1.035 2.054z" fill="#fff"/><path d="M58.921 14.16l1.041 4.575-4.91 10.1-4.579.55.18 1.475 5.392-.649 5.494-11.299-.945-4.156 2.608-2-.22 1.971-1.37.25.517 2.803.501.106-.214 1.922-5.761 11.404-7.225.922-.332-1.763-1.473.274.316 1.68-.28.036.192 1.472.364-.046.674 3.58-1.843.356-3.392.905.39 1.435 3.344-.892 3.247-.628-.931-4.945 1.202-.154.518 2.181.665 3.63-9.881 2.016.302 1.456 11.315-2.308-.934-5.101-.49-2.065 5.234-.668 6.24-12.35 1.2-10.796-6.156 4.72zM50.653 30.86zM26.324 26.484h1.467l3.519-7.083-1.274-.086-3.712 7.17zM32.627 19.55l-3.303 6.977 1.317.043 3.259-6.955-1.273-.064zM32.023 35.301l.69-3.68-1.382-.322-.431 3.745 1.123.257zM28.482 10.392l-1.057.364-10.015-.45 2.158 3.274 5.548-.685.43.428-.97 1.541.647.493h6.519l.626 2.054h1.122l-.777-2.74 3.712-2.396 1.101-5.885.647.235.821 5.82 1.835 3.018 1.122-.427-1.619-2.505-1.058-6.74-4.64-1.712-.194-.6.237-.278 4.317 1.562L37.29.57 35.13 1.746 32.713.569 31.245 2.43l-2.763-.77-.431 2.995 2.417.792v.856l1.274.407-.238.278-1.468.236-.086 1.305-3.885.385-.26-.92L29.95 6.39l-.475-.857-5.137 1.863.778 2.74 4.727-.408.042 2.418-.302.064-1.1-1.819zm-8.202 1.904l-.518-.749 4.21.343-3.692.406zM37.16 1.853l.302 1.198-1.512-.513 1.21-.685zM30.662 4.72l-1.49-.577.302-1.392 1.295.193-.107 1.776zm-3.282 7.983l-.647-1.028.971-.278.562 1.006-.886.3zm5.785-11.15l.799.492-.712.792-.691-.3.604-.984zm-1.9 2.867l.109-1.176 1.684.792-.303 1.177-1.49-.793zm-.107 3.746l2.59-.086.454-2.547.237.086.324.214-.13.963h.928l.195-.963.388.107-.41 2.74-1.382 1.134-3.237.15.043-1.798zm.086 4.794v-1.69l2.85.17 1.035-.62v.855l-3.97 2.419-2.85-.364 2.935-.77z" fill="#fff"/><path d="M11.129 40.459l.842.599 6.216-5.885.561.899 4.122-2.14.411.62 1.165-.641-.453-.771-.065-2.183-1.015.15-.129 2.161-.777-.192.302-1.947-1.08-.107-.603 2.61-.756.513-.798-1.668-5.094 4.708-6.303 3.081-1.446.236.669-1.327 2.525-1.048 9.13-10.423.691-2.055 1.706-.17.367-1.284-2.331.107.625-1.412 3.497-.322.734-1.284-3.583.172.647-1.22 3.994.085-3.065 6.014 3.108.085 3.863-6.142-1.187-.042-3.173 5.072-.604-.022 3.26-6.227-5.57-.065 2.353-.62.28-1.134 3.217-.108.13 1.413 1.38.085-.41-2.846-5.526.45-.344 1.177-3.735 1.049.54 1.262-12.11-.407-3.95-1.819-3.215 1.649.475 1.39 1.36-.791.776 1.348-2.158 2.503 3.626.514-1.035 1.37-1.75.834.972 1.028 1.64-.685 1.75 1.048 1.705-1.134 7.123-.235 2.136 1.412-5.633 6.014-6.217-.685-2.159 2.503-1.38.236.15.856 2.159-.236.28-.535 1.339-1.562 4.748.578-.388.386-5.44 1.133-.388 1.563-1.425.492.151.706 2.245-.449.454-1.477 3.56-.643L8 37.634l-2.483 1.092-.95 2.054-.906.342.302.878.086-.086 4.145-.514 3.13-1.54-.194.599zM2.99 19.229l.669-.385.755.536-.798.877-.626-1.027zm2.677 6.999l-1.015-.579L5.69 24.28l1.188 1.199-1.21.749zm9.173-1.263l-6.109.236-1.92-2.055 1.035-1.263-1.38-.641-1.21 1.412-1.618-.193 1.51-1.776 5.548.321 8.051.364L17 25.2l.776 1.135-.258.235-2.677-1.605z" fill="#fff"/><path d="M38.8 35.002l-1.683-.172-2.591-5.457 2.266-9.822-1.23-.086-2.395 10.38 2.978 6.42 4.684.235-3.692 11.427-2.222-.492-1.62-1.819-2.438-7.02-4.706-6.013-.15-2.567 1.424-1.22-.238-1.456-2.611 2.226.28 3.96.95 1.368-3.799 3.746-6.799 7.104.583 4.452 3.086 3.274-2.05 4.515-2.073-3.06-5.87.6.259 1.368 1.294-.084.605.62-.799 1.605-1.273-.278-.195 1.049 2.116 1.091-.54.963-1.122-.086-.345 1.027 5.439 1.37 6.82-1.99 1.231.77 1.36-.513.107-2.504-.97-.492 2.481-3.424 2.85.277 2.158-7.467-4.727.277-.54-2.289 5.634-4.409 1.253 3.852 2.287 2.482 2.677.579 4.64-14.253-2.785-.064zM14.15 56.316l1.295 1.648-2.762-.385-.67-1.027 2.137-.236zm8.353 5.286l-1.1-.706.13-.642.992.47-.022.878zm.799-15.322l1.122 4.194h3.886l-.216.728-2.482-.343-.346 1.07 2.44.428-.152.514-2.439-.45-.302 1.07 2.374.536-.345.813-2.31.064-3.13 4.3-.863.086-.518 1.606-6.044 1.904-2.158-.641.41-.814 5.547.086v-1.027l-6.302-.428.517-.942 5.527.77 2.849-6.869-3.26-3.595-.41-3.231L26.692 35.9l1.964 2.503-1.273 1.092.237 1.455 1.662.514-5.98 4.815zm6.907-5.5l-1.338-.321-.108-.707.777-.662.67 1.625v.065zM47.142 50.83l2.47-.177.075.83 1.493-.135-.363-3.98-5.361-.112-3.494-4.511-1.188.906 3.931 5.076 4.74.1.032.346-2.442.175.107 1.481zM43.921 50.972v.001zM48.873 55.832l-1.497.07.151 3.167 1.497-.07-.151-3.167z" fill="#fff"/><path d="M50.92 51.392l-4.24.384-1.648-1.802-1.11.999 2.15 2.35 4.265-.386.576.599-3.011.374.186 1.474 1.35-.167.095 4.629-.788 1.528-.079-.046-6.394 1.629-2.154-1.198 5.93-.153-.034-1.247-.297.007.915-2.837-.936-4.242-8.024-2.328-.42 1.427 7.17 2.08.66 2.991-.44 1.363-2.374-2.217-4.504 1.199.389 1.436 3.696-.985 2.306 2.153-3.743.096-.03-.018.937-.222-.291-1.214-2.44.577-.177 1.142 1.535.914-1.672.391.274 1.157 1.24-.29 2.316 1.288 6.384-1.626 2.344 1.354 1.308-3.127-1.415-1.31-.092-4.45 3.422-.423-3.135-3.253zm-.207 9.743l-.463 1.109-.727-.42.625-1.213.565.524zM60.471 18.937l2.699-.15.084 1.484-2.698.15-.085-1.484z" fill="#fff"/><path d="M32.735 64.063s11.31-25.895 11.59-26.793c.217-.75-.302-3.403.152-5.927.086-.514.388-.964.582-1.456.475-1.113 12.714-28.89 12.714-28.89h6.604s-13.36 29.81-13.835 30.966c-1.316 3.102-4.533 4.73-4.965 5.692-.453.942-11.137 26.408-11.137 26.408h-1.705z" fill="#00477E"/><path d="M55.873 1.146S43.57 29.93 43.14 30.765c-.605 1.198-3.065 2.46-4.34 4.108-.344.429-.496 1.006-.755 1.562-.496 1.092-11.936 27.457-11.936 27.457h6.52S43.245 39.56 43.742 38.425c1.078-2.482.301-6.141.604-7.19C44.627 30.23 57.6 1.146 57.6 1.146h-1.727z" fill="#E30613"/><path d="M55.873 1.147S43.57 29.931 43.14 30.766c-.605 1.198-3.066 2.46-4.34 4.107-.344.43-.496 1.007-.755 1.563-.496 1.092-11.936 27.457-11.936 27.457h6.519S43.246 39.56 43.743 38.426c1.078-2.482.301-6.141.604-7.19C44.627 30.23 57.6 1.148 57.6 1.148h-1.727z" stroke="#E30613" stroke-width="1.92"/><path d="M26.453 63.87l12.325-28.804c.303-.707 2.87-2.097 4.425-4.238.324-.427.432-.94.648-1.433.496-1.113 12.237-28.249 12.237-28.249h-6.41S38.648 26.27 38.152 27.404c-1.08 2.483-.194 6.228-.582 7.19C37.18 35.58 24.79 63.87 24.79 63.87h1.662z" fill="#fff"/><path d="M26.454 63.871l12.324-28.805c.303-.706 2.87-2.096 4.425-4.236.324-.428.432-.942.648-1.435.496-1.112 12.238-28.248 12.238-28.248h-6.41L38.152 27.406c-1.079 2.482-.194 6.227-.582 7.19-.388.985-12.779 29.275-12.779 29.275h1.663zM60.773.998L45.404 36.437m-1.77-5.222L28.268 66.653M52.463 1.212L38.369 34.275" stroke="#fff" stroke-width="1.92"/><path d="M228.89 53.178c-.607 0-1.112-.075-1.515-.226a3.868 3.868 0 01-1.059-.587l1.207-1.875c.152.12.319.237.502.35.182.113.41.17.683.17.365 0 .668-.151.911-.453.243-.3.487-.767.73-1.4l.341-.858-4.807-10.505h3.098l3.054 7.252 2.689-7.252h2.939l-4.466 10.595c-.213.512-.429 1.05-.65 1.615a9.341 9.341 0 01-.774 1.559 3.761 3.761 0 01-1.128 1.163c-.456.301-1.041.452-1.755.452zm19.619-4.383c-1.003 0-1.888-.15-2.655-.451-.767-.302-1.42-.674-1.959-1.119-.54-.444-.969-.861-1.288-1.253l2.006-1.83c.258.271.562.565.911.88a4.97 4.97 0 001.253.814c.486.226 1.048.34 1.686.34.897 0 1.561-.208 1.994-.622.433-.414.649-.9.649-1.457 0-.648-.266-1.152-.797-1.514-.532-.361-1.481-.67-2.848-.926-.927-.18-1.69-.49-2.29-.926-.6-.437-1.048-.96-1.345-1.57a4.32 4.32 0 01-.444-1.909c0-.768.194-1.48.581-2.135.387-.655.972-1.186 1.754-1.592.783-.407 1.767-.61 2.951-.61.805 0 1.497.087 2.074.26.577.173 1.059.384 1.447.632.387.249.687.49.9.723.212.233.364.403.455.508l-1.891 1.762c-.091-.09-.269-.248-.535-.474a4.325 4.325 0 00-1.026-.621c-.417-.189-.922-.283-1.515-.283-.79 0-1.371.188-1.743.565-.372.376-.558.753-.558 1.13 0 .527.216.96.649 1.298.433.34 1.272.637 2.518.893.79.165 1.53.433 2.222.802a4.478 4.478 0 011.674 1.536c.426.655.638 1.495.638 2.519 0 .873-.235 1.66-.706 2.36s-1.12 1.254-1.948 1.66c-.828.407-1.766.61-2.814.61zm-86.699-.045c-1.14 0-2.131-.244-2.974-.734a5.13 5.13 0 01-1.971-2.044c-.471-.874-.706-1.875-.706-3.005 0-1.039.231-1.976.695-2.812a5.248 5.248 0 011.914-1.988c.812-.49 1.75-.734 2.814-.734.987 0 1.815.173 2.483.52.669.346 1.208.809 1.618 1.389.41.58.706 1.23.889 1.954.182.723.273 1.46.273 2.214v.384h-7.975c0 .512.148.96.445 1.344.296.384.672.685 1.128.903.455.219.919.328 1.39.328.698 0 1.275-.08 1.731-.238.456-.158.82-.334 1.094-.53.273-.196.471-.354.592-.475l1.459 1.627-.376.372c-.206.204-.502.422-.889.656-.387.233-.881.437-1.481.61-.6.173-1.318.26-2.153.26zm11.233 0c-.988 0-1.888-.139-2.7-.417-.813-.28-1.462-.69-1.948-1.232l1.617-1.74c.335.332.756.607 1.265.825.509.219 1.09.328 1.743.328.577 0 1.041-.08 1.39-.237.349-.159.524-.403.524-.734a.844.844 0 00-.194-.554c-.129-.158-.383-.316-.763-.474-.38-.159-.964-.328-1.754-.508a9.201 9.201 0 01-1.504-.543 3.78 3.78 0 01-1.356-1.027c-.372-.445-.558-1.006-.558-1.683 0-.708.216-1.31.649-1.808.433-.497.988-.873 1.664-1.13a5.836 5.836 0 012.084-.383c.942 0 1.747.098 2.416.294a5.45 5.45 0 011.777.88l-1.39 1.876c-.289-.211-.672-.403-1.151-.577-.478-.173-1.029-.26-1.652-.26-.622 0-1.063.095-1.321.283-.258.188-.388.418-.388.689 0 .331.209.591.627.78.418.188 1.067.387 1.948.598 1.079.24 1.941.614 2.586 1.118.646.505.969 1.269.969 2.293 0 .678-.209 1.269-.627 1.773-.418.505-.972.893-1.663 1.164-.691.27-1.455.406-2.29.406zm35.842 0c-.988 0-1.888-.139-2.701-.417-.812-.28-1.462-.69-1.948-1.232l1.618-1.74c.334.332.756.607 1.265.825.509.219 1.09.328 1.743.328.577 0 1.04-.08 1.39-.237.349-.159.524-.403.524-.734a.85.85 0 00-.194-.554c-.129-.158-.383-.316-.763-.474-.38-.159-.965-.328-1.755-.508a9.192 9.192 0 01-1.503-.543 3.78 3.78 0 01-1.356-1.027c-.372-.445-.558-1.006-.558-1.683 0-.708.216-1.31.649-1.808.433-.497.987-.873 1.663-1.13a5.841 5.841 0 012.085-.383c.942 0 1.747.098 2.415.294.669.195 1.261.489 1.778.88l-1.39 1.876c-.289-.211-.672-.403-1.151-.577-.478-.173-1.029-.26-1.652-.26s-1.063.095-1.321.283c-.259.188-.388.418-.388.689 0 .331.209.591.627.78.418.188 1.067.387 1.948.598 1.078.24 1.94.614 2.586 1.118.646.505.969 1.269.969 2.293 0 .678-.209 1.269-.627 1.773-.418.505-.972.893-1.663 1.164-.692.27-1.455.406-2.29.406zm-20.735-.022c-.578 0-1.151-.12-1.721-.362a3.319 3.319 0 01-1.412-1.13c-.373-.511-.559-1.159-.559-1.942 0-1.205.433-2.138 1.299-2.801.866-.663 1.998-.994 3.395-.994.259 0 .566.007.923.023.357.014.817.037 1.379.067v-.248c0-.527-.213-.941-.638-1.243-.426-.3-.98-.451-1.664-.451-.759 0-1.367.098-1.822.293a8.112 8.112 0 00-1.208.633l-1.231-1.807c.289-.211.631-.418 1.026-.622.395-.203.881-.372 1.458-.508s1.291-.203 2.142-.203c1.367 0 2.461.358 3.281 1.073.82.715 1.231 1.638 1.231 2.767v7.116h-2.507l-.068-.994c-.289.346-.733.655-1.333.926s-1.257.407-1.971.407zm82.575 0c-.578 0-1.151-.12-1.72-.362a3.315 3.315 0 01-1.413-1.13c-.372-.511-.559-1.159-.559-1.942 0-1.205.433-2.138 1.299-2.801.866-.663 1.998-.994 3.396-.994.258 0 .565.007.922.023.357.014.817.037 1.379.067v-.248c0-.527-.213-.941-.638-1.243-.426-.3-.98-.451-1.663-.451-.76 0-1.368.098-1.823.293a8.112 8.112 0 00-1.208.633l-1.231-1.807c.289-.211.631-.418 1.026-.622.395-.203.881-.372 1.458-.508s1.291-.203 2.142-.203c1.367 0 2.461.358 3.281 1.073.82.715 1.23 1.638 1.23 2.767v7.116h-2.506l-.068-.994c-.289.346-.733.655-1.333.926s-1.257.407-1.971.407zm-122.496-.34l-5.65-15.066h3.189l4.034 11.498 4.033-11.498h3.007l-5.651 15.067h-2.962zm31.581 0V33.323h2.689v15.067h-2.689zm16.816 0V37.795h2.575l.068 1.333c.167-.21.391-.433.672-.666a4.077 4.077 0 011.048-.61c.418-.173.916-.26 1.493-.26.258 0 .49.015.695.045.205.03.414.083.626.158l-.546 2.508a3.516 3.516 0 00-1.231-.204c-.744 0-1.382.234-1.914.7-.531.468-.797 1.093-.797 1.876v5.715h-2.689zm19.026 0V33.323h2.689v8.222l3.85-3.75h3.168l-4.011 3.908 4.466 6.687h-3.213l-3.098-4.88-1.162 1.13v3.75h-2.689zm43.612 0l-4.535-10.594h3.099l2.871 7.59 2.871-7.59h2.939l-4.511 10.595h-2.734zm19.664 0v-2.032l5.445-6.325h-5.286v-2.237h8.636v2.078l-5.628 6.348h5.628v2.169h-8.795zm-89.958-1.761c.425 0 .824-.09 1.196-.271.372-.181.68-.422.923-.723s.365-.633.365-.994V43.6a23.34 23.34 0 00-1.14-.067c-.41-.015-.721-.022-.934-.022-.866 0-1.473.169-1.823.508-.349.339-.524.726-.524 1.163 0 .452.164.806.49 1.062.327.256.809.384 1.447.384zm82.575 0c.425 0 .824-.09 1.196-.271.372-.181.68-.422.923-.723s.365-.633.365-.994V43.6a23.34 23.34 0 00-1.14-.067c-.41-.015-.721-.022-.934-.022-.866 0-1.473.169-1.823.508-.349.339-.524.726-.524 1.163 0 .452.163.806.49 1.062.327.256.809.384 1.447.384zm-112.698-4.654h5.241c0-.361-.095-.719-.285-1.073a2.375 2.375 0 00-.831-.88c-.365-.234-.828-.35-1.39-.35-.593 0-1.09.116-1.493.35-.402.233-.71.526-.923.88a2.07 2.07 0 00-.319 1.073zm40.035-5.782l-2.37-3.208h2.37l1.276 1.717 1.253-1.717h2.37l-2.37 3.208h-2.529zm31.922 0l1.094-3.208h2.871l-1.8 3.208h-2.165zM126.788 52.364l1.208-1.875c.152.12.319.237.501.35.182.113.41.17.684.17.364 0 .668-.151.911-.453.243-.3.486-.768.729-1.4l.342-.858-4.808-10.505h3.099l3.053 7.252 2.689-7.252h2.939l-4.466 10.595c-.212.512-.429 1.05-.649 1.615a9.263 9.263 0 01-.775 1.559 3.762 3.762 0 01-1.128 1.163c-.455.301-1.04.452-1.754.452-.608 0-1.113-.075-1.515-.226a3.877 3.877 0 01-1.06-.587zm4.489-16.175l1.094-3.207h2.871l-1.8 3.207h-2.165zM116.125 48.39V33.32h2.688v8.223l3.851-3.75h3.167l-4.01 3.908 4.466 6.687h-3.213l-3.099-4.88-1.162 1.13v3.75h-2.688zM104.709 47.1l1.618-1.74a4.02 4.02 0 001.264.825c.509.219 1.09.328 1.743.328.578 0 1.041-.08 1.39-.237.35-.158.524-.403.524-.734a.849.849 0 00-.193-.554c-.129-.158-.384-.316-.764-.474-.379-.158-.964-.328-1.754-.508a9.192 9.192 0 01-1.504-.543 3.79 3.79 0 01-1.356-1.027c-.372-.445-.558-1.006-.558-1.683 0-.708.217-1.31.649-1.808.433-.497.988-.873 1.664-1.13a5.841 5.841 0 012.085-.383c.942 0 1.747.098 2.415.294.668.195 1.261.489 1.777.88l-1.39 1.875c-.288-.21-.672-.402-1.15-.576-.479-.173-1.029-.26-1.652-.26s-1.064.095-1.322.283c-.258.188-.387.418-.387.689 0 .331.209.591.626.78.418.188 1.068.387 1.949.598 1.078.24 1.94.614 2.586 1.118.645.505.968 1.269.968 2.293 0 .678-.209 1.269-.626 1.773-.418.505-.973.893-1.664 1.164-.691.27-1.454.406-2.29.406-.987 0-1.887-.139-2.7-.418-.813-.278-1.462-.689-1.948-1.23zm-3.144-1.875l1.458 1.627-.376.372c-.205.204-.501.422-.889.656-.387.233-.881.436-1.481.61-.6.173-1.318.26-2.153.26-1.14 0-2.13-.245-2.974-.735a5.13 5.13 0 01-1.97-2.044c-.472-.874-.707-1.875-.707-3.005 0-1.039.232-1.976.695-2.812a5.252 5.252 0 011.914-1.988c.813-.49 1.75-.734 2.814-.734.987 0 1.815.173 2.484.52.668.346 1.207.809 1.617 1.389.411.58.707 1.23.889 1.954.182.723.274 1.46.274 2.214v.384h-7.975c0 .512.148.96.444 1.344.296.384.672.685 1.128.903.456.219.919.328 1.39.328.698 0 1.276-.08 1.731-.237.456-.159.821-.335 1.094-.531.274-.196.471-.354.593-.475zm-6.403-3.253h5.24c0-.361-.094-.719-.284-1.073a2.375 2.375 0 00-.832-.88c-.365-.234-.828-.35-1.39-.35-.592 0-1.09.116-1.492.35-.403.233-.71.526-.923.88a2.063 2.063 0 00-.32 1.073zm-6.038 1.943l2.005 1.717c-.304.452-.76.919-1.367 1.4-.608.482-1.33.889-2.165 1.22a7.287 7.287 0 01-2.712.497c-1.503 0-2.836-.339-3.998-1.016a7.286 7.286 0 01-2.735-2.79c-.66-1.182-.99-2.519-.99-4.01 0-1.1.189-2.13.569-3.095.38-.963.915-1.81 1.606-2.54a7.416 7.416 0 012.472-1.718c.957-.414 2.013-.621 3.168-.621 1.504 0 2.753.294 3.748.881.995.587 1.796 1.303 2.404 2.146L89.1 37.772a6.256 6.256 0 00-1.698-1.672c-.645-.422-1.454-.633-2.426-.633-.988 0-1.842.249-2.564.746a4.878 4.878 0 00-1.663 1.977 6.191 6.191 0 00-.581 2.677c0 .963.194 1.837.58 2.62.388.783.931 1.408 1.63 1.875.699.467 1.52.7 2.46.7.882 0 1.592-.128 2.131-.384.54-.256.972-.553 1.3-.892.326-.339.61-.629.854-.87zM83.45 32.192l-2.506-3.524h2.37l1.412 1.852 1.39-1.852h2.37l-2.507 3.524H83.45z" fill="#fff"/></g><defs><clipPath id="clip0_12_1280"><path fill="#fff" d="M0 0h288v67H0z"/></clipPath></defs></svg>