<svg width="16" height="16" viewBox="0 0 16 16" fill="none" xmlns="http://www.w3.org/2000/svg"><g clip-path="url(#clip0_442_2335)"><path d="M8.002 3.899A4.095 4.095 0 003.9 8a4.095 4.095 0 004.102 4.101A4.095 4.095 0 0012.103 8a4.095 4.095 0 00-4.101-4.101zm0 6.767A2.671 2.671 0 015.335 8a2.669 2.669 0 012.667-2.666A2.669 2.669 0 0110.668 8c0 1.47-1.2 2.666-2.666 2.666zm5.225-6.935a.954.954 0 01-.956.957.957.957 0 11.957-.957zm2.717.97c-.06-1.28-.354-2.416-1.292-3.35C13.717.414 12.582.121 11.3.057c-1.32-.075-5.28-.075-6.6 0-1.278.06-2.413.353-3.352 1.289C.41 2.282.12 3.417.056 4.698c-.075 1.321-.075 5.28 0 6.6.06 1.282.354 2.417 1.292 3.352.94.935 2.07 1.228 3.352 1.292 1.32.075 5.28.075 6.6 0 1.281-.06 2.416-.353 3.352-1.292.935-.935 1.228-2.07 1.292-3.352.075-1.32.075-5.275 0-6.596zm-1.706 8.014a2.7 2.7 0 01-1.521 1.52c-1.053.418-3.552.322-4.715.322-1.164 0-3.666.093-4.715-.321a2.7 2.7 0 01-1.521-1.52C1.348 11.661 1.445 9.163 1.445 8c0-1.164-.093-3.666.321-4.715a2.7 2.7 0 011.52-1.52c1.054-.418 3.552-.322 4.716-.322 1.163 0 3.666-.093 4.715.321a2.7 2.7 0 011.52 1.52c.418 1.054.322 3.552.322 4.716 0 1.164.096 3.666-.321 4.715z" fill="#fff"/></g><defs><clipPath id="clip0_442_2335"><path fill="#fff" d="M0 0h16v16H0z"/></clipPath></defs></svg>